<svg xmlns="http://www.w3.org/2000/svg" xmlns:xlink="http://www.w3.org/1999/xlink" width="352.213" height="315.257" viewBox="0 0 352.21301 315.25699" enable-background="new 0 0 800 800"><defs><linearGradient xlink:href="#a" gradientUnits="userSpaceOnUse" x1="411.445" y1="325.688" x2="576.106" y2="325.688"/><linearGradient xlink:href="#SVGID_3_" gradientUnits="userSpaceOnUse" gradientTransform="matrix(-1 0 0 1 837.164 0)" x1="373.398" y1="610.229" x2="401.824" y2="610.229"/><linearGradient xlink:href="#a" id="b" gradientUnits="userSpaceOnUse" x1="411.445" y1="325.688" x2="576.106" y2="325.688"/></defs><g transform="translate(-223.892 -168.06)"><linearGradient id="a" gradientUnits="userSpaceOnUse" x1="411.445" y1="325.688" x2="576.106" y2="325.688"><stop offset="0" stop-color="#F1F2F2"/><stop offset="1" stop-color="#D1D3D4"/></linearGradient><path fill="url(#b)" d="M498.605 168.06h77.5v315.255h-164.66v-69.062h87.16z"/></g><path d="M105.821 190.408h129.728v-190.408h-130.605c-65.531 0-100.506 36.758-100.506 91.215 0 35.867 24.789 55.789 34.531 62.436-12.836 7.982-38.969 24.352-38.969 68.627 0 60.205 42.068 92.979 98.303 92.979h59.807l-.041-69.516h-52.248c-21.252 0-28.338-14.611-28.338-27.885 0-13.274 7.086-27.448 28.338-27.448zm3.982-120.883h48.266v51.365h-48.266c-21.248 0-27.885-13.281-27.885-25.684s6.637-25.681 27.885-25.681z" fill="#9e509f"/></svg>